<mxfile host="app.diagrams.net" modified="2023-11-22T05:52:13.980Z" agent="Mozilla/5.0 (Windows NT 10.0; Win64; x64) AppleWebKit/537.36 (KHTML, like Gecko) Chrome/119.0.0.0 Safari/537.36" etag="tZ4O7JHZ9laZ2GYpuejx" version="22.1.3" type="device">
  <diagram name="Page-1" id="Ft4WA8Ozzb3AgiNGryjA">
    <mxGraphModel dx="965" dy="564" grid="1" gridSize="10" guides="1" tooltips="1" connect="1" arrows="1" fold="1" page="1" pageScale="1" pageWidth="850" pageHeight="1100" math="0" shadow="0">
      <root>
        <mxCell id="0" />
        <mxCell id="1" parent="0" />
        <mxCell id="Mnk-arRrNj_IOAzJv4SX-6" value="" style="group" vertex="1" connectable="0" parent="1">
          <mxGeometry x="80" y="200" width="100" height="190" as="geometry" />
        </mxCell>
        <mxCell id="Mnk-arRrNj_IOAzJv4SX-1" value="" style="ellipse;whiteSpace=wrap;html=1;aspect=fixed;" vertex="1" parent="Mnk-arRrNj_IOAzJv4SX-6">
          <mxGeometry x="20" width="50" height="50" as="geometry" />
        </mxCell>
        <mxCell id="Mnk-arRrNj_IOAzJv4SX-2" value="" style="endArrow=none;html=1;rounded=0;entryX=0.5;entryY=1;entryDx=0;entryDy=0;" edge="1" parent="Mnk-arRrNj_IOAzJv4SX-6" target="Mnk-arRrNj_IOAzJv4SX-1">
          <mxGeometry width="50" height="50" relative="1" as="geometry">
            <mxPoint x="45" y="130" as="sourcePoint" />
            <mxPoint x="80" y="80" as="targetPoint" />
          </mxGeometry>
        </mxCell>
        <mxCell id="Mnk-arRrNj_IOAzJv4SX-3" value="" style="endArrow=none;html=1;rounded=0;" edge="1" parent="Mnk-arRrNj_IOAzJv4SX-6">
          <mxGeometry width="50" height="50" relative="1" as="geometry">
            <mxPoint x="10" y="190" as="sourcePoint" />
            <mxPoint x="45" y="130" as="targetPoint" />
          </mxGeometry>
        </mxCell>
        <mxCell id="Mnk-arRrNj_IOAzJv4SX-4" value="" style="endArrow=none;html=1;rounded=0;" edge="1" parent="Mnk-arRrNj_IOAzJv4SX-6">
          <mxGeometry width="50" height="50" relative="1" as="geometry">
            <mxPoint x="66" y="190" as="sourcePoint" />
            <mxPoint x="46" y="130" as="targetPoint" />
          </mxGeometry>
        </mxCell>
        <mxCell id="Mnk-arRrNj_IOAzJv4SX-5" value="" style="endArrow=none;html=1;rounded=0;" edge="1" parent="Mnk-arRrNj_IOAzJv4SX-6">
          <mxGeometry width="50" height="50" relative="1" as="geometry">
            <mxPoint y="80" as="sourcePoint" />
            <mxPoint x="100" y="80" as="targetPoint" />
          </mxGeometry>
        </mxCell>
        <mxCell id="Mnk-arRrNj_IOAzJv4SX-7" value="" style="group" vertex="1" connectable="0" parent="1">
          <mxGeometry x="654" y="200" width="100" height="190" as="geometry" />
        </mxCell>
        <mxCell id="Mnk-arRrNj_IOAzJv4SX-8" value="" style="ellipse;whiteSpace=wrap;html=1;aspect=fixed;" vertex="1" parent="Mnk-arRrNj_IOAzJv4SX-7">
          <mxGeometry x="20" width="50" height="50" as="geometry" />
        </mxCell>
        <mxCell id="Mnk-arRrNj_IOAzJv4SX-9" value="" style="endArrow=none;html=1;rounded=0;entryX=0.5;entryY=1;entryDx=0;entryDy=0;" edge="1" parent="Mnk-arRrNj_IOAzJv4SX-7" target="Mnk-arRrNj_IOAzJv4SX-8">
          <mxGeometry width="50" height="50" relative="1" as="geometry">
            <mxPoint x="45" y="130" as="sourcePoint" />
            <mxPoint x="80" y="80" as="targetPoint" />
          </mxGeometry>
        </mxCell>
        <mxCell id="Mnk-arRrNj_IOAzJv4SX-10" value="" style="endArrow=none;html=1;rounded=0;" edge="1" parent="Mnk-arRrNj_IOAzJv4SX-7">
          <mxGeometry width="50" height="50" relative="1" as="geometry">
            <mxPoint x="10" y="190" as="sourcePoint" />
            <mxPoint x="45" y="130" as="targetPoint" />
          </mxGeometry>
        </mxCell>
        <mxCell id="Mnk-arRrNj_IOAzJv4SX-11" value="" style="endArrow=none;html=1;rounded=0;" edge="1" parent="Mnk-arRrNj_IOAzJv4SX-7">
          <mxGeometry width="50" height="50" relative="1" as="geometry">
            <mxPoint x="66" y="190" as="sourcePoint" />
            <mxPoint x="46" y="130" as="targetPoint" />
          </mxGeometry>
        </mxCell>
        <mxCell id="Mnk-arRrNj_IOAzJv4SX-12" value="" style="endArrow=none;html=1;rounded=0;" edge="1" parent="Mnk-arRrNj_IOAzJv4SX-7">
          <mxGeometry width="50" height="50" relative="1" as="geometry">
            <mxPoint y="80" as="sourcePoint" />
            <mxPoint x="100" y="80" as="targetPoint" />
          </mxGeometry>
        </mxCell>
        <mxCell id="Mnk-arRrNj_IOAzJv4SX-16" value="" style="ellipse;whiteSpace=wrap;html=1;" vertex="1" parent="1">
          <mxGeometry x="350" y="90" width="120" height="80" as="geometry" />
        </mxCell>
        <mxCell id="Mnk-arRrNj_IOAzJv4SX-33" value="Food Critic" style="text;html=1;strokeColor=none;fillColor=none;align=center;verticalAlign=middle;whiteSpace=wrap;rounded=0;" vertex="1" parent="1">
          <mxGeometry x="90" y="160" width="80" height="30" as="geometry" />
        </mxCell>
        <mxCell id="Mnk-arRrNj_IOAzJv4SX-34" value="Chef" style="text;html=1;strokeColor=none;fillColor=none;align=center;verticalAlign=middle;whiteSpace=wrap;rounded=0;" vertex="1" parent="1">
          <mxGeometry x="664" y="160" width="80" height="30" as="geometry" />
        </mxCell>
        <mxCell id="Mnk-arRrNj_IOAzJv4SX-41" value="" style="group" vertex="1" connectable="0" parent="1">
          <mxGeometry x="250" y="50" width="320" height="460" as="geometry" />
        </mxCell>
        <mxCell id="Mnk-arRrNj_IOAzJv4SX-15" value="" style="rounded=0;whiteSpace=wrap;html=1;direction=south;" vertex="1" parent="Mnk-arRrNj_IOAzJv4SX-41">
          <mxGeometry width="320" height="460" as="geometry" />
        </mxCell>
        <mxCell id="Mnk-arRrNj_IOAzJv4SX-17" value="" style="ellipse;whiteSpace=wrap;html=1;" vertex="1" parent="Mnk-arRrNj_IOAzJv4SX-41">
          <mxGeometry x="80" y="40" width="160" height="80" as="geometry" />
        </mxCell>
        <mxCell id="Mnk-arRrNj_IOAzJv4SX-21" value="Eat Food" style="text;html=1;strokeColor=none;fillColor=none;align=center;verticalAlign=middle;whiteSpace=wrap;rounded=0;" vertex="1" parent="Mnk-arRrNj_IOAzJv4SX-41">
          <mxGeometry x="130" y="65" width="60" height="30" as="geometry" />
        </mxCell>
        <mxCell id="Mnk-arRrNj_IOAzJv4SX-27" value="" style="ellipse;whiteSpace=wrap;html=1;" vertex="1" parent="Mnk-arRrNj_IOAzJv4SX-41">
          <mxGeometry x="80" y="130" width="160" height="80" as="geometry" />
        </mxCell>
        <mxCell id="Mnk-arRrNj_IOAzJv4SX-28" value="Eat Food" style="text;html=1;strokeColor=none;fillColor=none;align=center;verticalAlign=middle;whiteSpace=wrap;rounded=0;" vertex="1" parent="Mnk-arRrNj_IOAzJv4SX-41">
          <mxGeometry x="130" y="155" width="60" height="30" as="geometry" />
        </mxCell>
        <mxCell id="Mnk-arRrNj_IOAzJv4SX-29" value="" style="ellipse;whiteSpace=wrap;html=1;" vertex="1" parent="Mnk-arRrNj_IOAzJv4SX-41">
          <mxGeometry x="80" y="220" width="160" height="80" as="geometry" />
        </mxCell>
        <mxCell id="Mnk-arRrNj_IOAzJv4SX-30" value="Eat Food" style="text;html=1;strokeColor=none;fillColor=none;align=center;verticalAlign=middle;whiteSpace=wrap;rounded=0;" vertex="1" parent="Mnk-arRrNj_IOAzJv4SX-41">
          <mxGeometry x="130" y="245" width="60" height="30" as="geometry" />
        </mxCell>
        <mxCell id="Mnk-arRrNj_IOAzJv4SX-31" value="" style="ellipse;whiteSpace=wrap;html=1;" vertex="1" parent="Mnk-arRrNj_IOAzJv4SX-41">
          <mxGeometry x="80" y="310" width="160" height="80" as="geometry" />
        </mxCell>
        <mxCell id="Mnk-arRrNj_IOAzJv4SX-32" value="Eat Food" style="text;html=1;strokeColor=none;fillColor=none;align=center;verticalAlign=middle;whiteSpace=wrap;rounded=0;" vertex="1" parent="Mnk-arRrNj_IOAzJv4SX-41">
          <mxGeometry x="130" y="335" width="60" height="30" as="geometry" />
        </mxCell>
        <mxCell id="Mnk-arRrNj_IOAzJv4SX-42" value="" style="endArrow=none;html=1;rounded=0;entryX=0;entryY=0.5;entryDx=0;entryDy=0;" edge="1" parent="1" target="Mnk-arRrNj_IOAzJv4SX-17">
          <mxGeometry width="50" height="50" relative="1" as="geometry">
            <mxPoint x="150" y="240" as="sourcePoint" />
            <mxPoint x="200" y="190" as="targetPoint" />
          </mxGeometry>
        </mxCell>
        <mxCell id="Mnk-arRrNj_IOAzJv4SX-43" value="" style="endArrow=none;html=1;rounded=0;entryX=0;entryY=0.5;entryDx=0;entryDy=0;" edge="1" parent="1" target="Mnk-arRrNj_IOAzJv4SX-27">
          <mxGeometry width="50" height="50" relative="1" as="geometry">
            <mxPoint x="150" y="266" as="sourcePoint" />
            <mxPoint x="330" y="156" as="targetPoint" />
          </mxGeometry>
        </mxCell>
        <mxCell id="Mnk-arRrNj_IOAzJv4SX-44" value="" style="endArrow=none;html=1;rounded=0;entryX=0;entryY=0.5;entryDx=0;entryDy=0;" edge="1" parent="1" target="Mnk-arRrNj_IOAzJv4SX-29">
          <mxGeometry width="50" height="50" relative="1" as="geometry">
            <mxPoint x="150" y="300" as="sourcePoint" />
            <mxPoint x="330" y="254" as="targetPoint" />
          </mxGeometry>
        </mxCell>
        <mxCell id="Mnk-arRrNj_IOAzJv4SX-45" value="" style="endArrow=none;html=1;rounded=0;entryX=0;entryY=0.5;entryDx=0;entryDy=0;exitX=1;exitY=0.5;exitDx=0;exitDy=0;" edge="1" parent="1" source="Mnk-arRrNj_IOAzJv4SX-31">
          <mxGeometry width="50" height="50" relative="1" as="geometry">
            <mxPoint x="520" y="310" as="sourcePoint" />
            <mxPoint x="700" y="320" as="targetPoint" />
          </mxGeometry>
        </mxCell>
      </root>
    </mxGraphModel>
  </diagram>
</mxfile>
